{
    "accessors": {
        "ShapeCylinder.091_buffer_accessor_0": {
            "bufferView": "ShapeCylinder.091_buffer_view_0",
            "byteOffset": 0,
            "byteStride": 24,
            "componentType": 5126,
            "count": 65200,
            "max": [
                14.616485595703125,
                15.634209632873535,
                13.422377586364746
            ],
            "min": [
                -19.250028610229492,
                -11.443441390991211,
                -13.59238052368164
            ],
            "type": "VEC3"
        },
        "ShapeCylinder.091_buffer_accessor_1": {
            "bufferView": "ShapeCylinder.091_buffer_view_0",
            "byteOffset": 12,
            "byteStride": 24,
            "componentType": 5126,
            "count": 65200,
            "max": [
                0.9999791979789734,
                0.9999411106109619,
                0.9998088479042053
            ],
            "min": [
                -0.9998683929443359,
                -0.9999667406082153,
                -0.99997478723526
            ],
            "type": "VEC3"
        },
        "ShapeCylinder.091_buffer_accessor_2": {
            "bufferView": "ShapeCylinder.091_buffer_view_1",
            "byteOffset": 0,
            "byteStride": 2,
            "componentType": 5123,
            "count": 74682,
            "max": [
                65199
            ],
            "min": [
                0
            ],
            "type": "SCALAR"
        }
    },
    "asset": {
        "profile": {
            "api": "WebGL",
            "version": "1.0.3"
        },
        "version": "1.0"
    },
    "bufferViews": {
        "ShapeCylinder.091_buffer_view_0": {
            "buffer": "ShapeCylinder.091_buffer",
            "byteLength": 1564800,
            "byteOffset": 0,
            "target": 34962
        },
        "ShapeCylinder.091_buffer_view_1": {
            "buffer": "ShapeCylinder.091_buffer",
            "byteLength": 149364,
            "byteOffset": 1564800,
            "target": 34963
        }
    },
    "buffers": {
        "ShapeCylinder.091_buffer": {
            "byteLength": 1714164,
            "type": "arraybuffer",
            "uri": "data:text/plain;base64,"
        }
    },
    "extensions": {
        "BLENDER_actions": {
            "actions": {}
        }
    },
    "extensionsUsed": [
        "BLENDER_actions",
        "BLENDER_physics"
    ],
    "extras": {
        "lights": {}
    },
    "materials": {
        "Dummy": {
            "values": {
                "ambient": [
                    1.0,
                    1.0,
                    1.0,
                    1.0
                ],
                "diffuse": [
                    0.64000004529953,
                    0.64000004529953,
                    0.64000004529953,
                    1.0
                ],
                "emission": [
                    0.0,
                    0.0,
                    0.0,
                    1.0
                ],
                "shininess": 50,
                "specular": [
                    0.4000000059604645,
                    0.4000000059604645,
                    0.4000000059604645,
                    1.0
                ],
                "textures": [],
                "uv_layers": []
            }
        },
        "Shape": {
            "values": {
                "ambient": [
                    1.0,
                    1.0,
                    1.0,
                    1.0
                ],
                "diffuse": [
                    0.800000011920929,
                    0.800000011920929,
                    0.800000011920929,
                    1.0
                ],
                "emission": [
                    0.0,
                    0.0,
                    0.0,
                    1.0
                ],
                "shininess": 248,
                "specular": [
                    0.1274999976158142,
                    0.1274999976158142,
                    0.1274999976158142,
                    1.0
                ],
                "textures": [],
                "uv_layers": []
            }
        },
        "Shape.001": {
            "values": {
                "ambient": [
                    1.0,
                    1.0,
                    1.0,
                    1.0
                ],
                "diffuse": [
                    0.17760001122951508,
                    0.17760001122951508,
                    0.17760001122951508,
                    1.0
                ],
                "emission": [
                    0.0,
                    0.0,
                    0.0,
                    1.0
                ],
                "shininess": 248,
                "specular": [
                    0.1274999976158142,
                    0.1274999976158142,
                    0.1274999976158142,
                    1.0
                ],
                "textures": [],
                "uv_layers": []
            }
        },
        "Shape.002": {
            "values": {
                "ambient": [
                    1.0,
                    1.0,
                    1.0,
                    1.0
                ],
                "diffuse": [
                    0.1505880057811737,
                    0.2509799897670746,
                    0.7780392169952393,
                    1.0
                ],
                "emission": [
                    0.0,
                    0.0,
                    0.0,
                    1.0
                ],
                "shininess": 248,
                "specular": [
                    0.1274999976158142,
                    0.1274999976158142,
                    0.1274999976158142,
                    1.0
                ],
                "textures": [],
                "uv_layers": []
            }
        },
        "Shape.003": {
            "values": {
                "ambient": [
                    1.0,
                    1.0,
                    1.0,
                    1.0
                ],
                "diffuse": [
                    0.800000011920929,
                    0.0407843217253685,
                    0.0407843217253685,
                    1.0
                ],
                "emission": [
                    0.0,
                    0.0,
                    0.0,
                    1.0
                ],
                "shininess": 248,
                "specular": [
                    0.1274999976158142,
                    0.1274999976158142,
                    0.1274999976158142,
                    1.0
                ],
                "textures": [],
                "uv_layers": []
            }
        },
        "Shape.004": {
            "values": {
                "ambient": [
                    1.0,
                    1.0,
                    1.0,
                    1.0
                ],
                "diffuse": [
                    0.800000011920929,
                    0.800000011920929,
                    0.1505880057811737,
                    1.0
                ],
                "emission": [
                    0.0,
                    0.0,
                    0.0,
                    1.0
                ],
                "shininess": 248,
                "specular": [
                    0.1274999976158142,
                    0.1274999976158142,
                    0.1274999976158142,
                    1.0
                ],
                "textures": [],
                "uv_layers": []
            }
        },
        "Shape.005": {
            "values": {
                "ambient": [
                    1.0,
                    1.0,
                    1.0,
                    1.0
                ],
                "diffuse": [
                    0.800000011920929,
                    0.6744000315666199,
                    0.0,
                    1.0
                ],
                "emission": [
                    0.0,
                    0.0,
                    0.0,
                    1.0
                ],
                "shininess": 248,
                "specular": [
                    0.1274999976158142,
                    0.1274999976158142,
                    0.1274999976158142,
                    1.0
                ],
                "textures": [],
                "uv_layers": []
            }
        },
        "Shape.006": {
            "values": {
                "ambient": [
                    1.0,
                    1.0,
                    1.0,
                    1.0
                ],
                "diffuse": [
                    0.55840003490448,
                    0.1064000055193901,
                    0.1064000055193901,
                    1.0
                ],
                "emission": [
                    0.0,
                    0.0,
                    0.0,
                    1.0
                ],
                "shininess": 248,
                "specular": [
                    0.1274999976158142,
                    0.1274999976158142,
                    0.1274999976158142,
                    1.0
                ],
                "textures": [],
                "uv_layers": []
            }
        },
        "Shape.007": {
            "values": {
                "ambient": [
                    1.0,
                    1.0,
                    1.0,
                    1.0
                ],
                "diffuse": [
                    0.0,
                    0.4000000059604645,
                    0.800000011920929,
                    1.0
                ],
                "emission": [
                    0.0,
                    0.0,
                    0.0,
                    1.0
                ],
                "shininess": 248,
                "specular": [
                    0.1274999976158142,
                    0.1274999976158142,
                    0.1274999976158142,
                    1.0
                ],
                "textures": [],
                "uv_layers": []
            }
        },
        "Shape.008": {
            "values": {
                "ambient": [
                    1.0,
                    1.0,
                    1.0,
                    1.0
                ],
                "diffuse": [
                    0.3840000033378601,
                    0.3840000033378601,
                    0.3840000033378601,
                    1.0
                ],
                "emission": [
                    0.0,
                    0.0,
                    0.0,
                    1.0
                ],
                "shininess": 248,
                "specular": [
                    0.1274999976158142,
                    0.1274999976158142,
                    0.1274999976158142,
                    1.0
                ],
                "textures": [],
                "uv_layers": []
            }
        }
    },
    "meshes": {
        "ShapeCylinder.091": {
            "name": "ShapeCylinder.091",
            "primitives": [
                {
                    "attributes": {
                        "NORMAL": "ShapeCylinder.091_buffer_accessor_1",
                        "POSITION": "ShapeCylinder.091_buffer_accessor_0"
                    },
                    "indices": "ShapeCylinder.091_buffer_accessor_2",
                    "material": "Dummy",
                    "mode": 4
                }
            ]
        }
    },
    "nodes": {
        "Camera": {
            "camera": "Camera",
            "children": [],
            "matrix": [
                0.6858805418014526,
                0.7276337742805481,
                -0.010816737078130245,
                0.0,
                -0.31737014651298523,
                0.31246858835220337,
                0.8953432440757751,
                0.0,
                0.6548618674278259,
                -0.6106656193733215,
                0.4452453553676605,
                0.0,
                37.70518112182617,
                -32.463748931884766,
                24.744224548339844,
                1.0
            ],
            "name": "Camera"
        },
        "ShapeCylinder.091": {
            "children": [],
            "matrix": [
                -0.987445592880249,
                0.0873420238494873,
                -0.13161596655845642,
                0.0,
                -0.13161519169807434,
                -0.9156597852706909,
                0.3797963559627533,
                0.0,
                -0.0873432606458664,
                0.3923508822917938,
                0.9156596660614014,
                0.0,
                0.0,
                0.0,
                0.0,
                1.0
            ],
            "meshes": [
                "ShapeCylinder.091"
            ],
            "name": "ShapeCylinder.091"
        },
        "Viewpoint": {
            "camera": "Viewpoint",
            "children": [],
            "matrix": [
                -1.0,
                -8.742277657347586e-08,
                0.0,
                0.0,
                -3.821371353845884e-15,
                4.371138828673793e-08,
                1.0,
                0.0,
                -8.742277657347586e-08,
                1.0,
                -4.371138828673793e-08,
                0.0,
                7.08650016784668,
                117.4229965209961,
                29.9060001373291,
                1.0
            ],
            "name": "Viewpoint"
        }
    },
    "samplers": {
        "default": {}
    },
    "scene": "Scene",
    "scenes": {
        "Scene": {
            "extras": {
                "active_camera": "Camera",
                "background_color": [
                    1.0,
                    1.0,
                    1.0
                ],
                "frames_per_second": 24,
                "hidden_nodes": []
            },
            "nodes": [
                "ShapeCylinder.091",
                "Viewpoint",
                "Camera"
            ]
        }
    }
}
